<?xml version="1.0" encoding="UTF-8" standalone="no"?>
<svg xmlns="http://www.w3.org/2000/svg" viewBox="0 0 600 800" x="0" y="0" version="1.1">
  <defs>
    <style type="text/css">
      <![CDATA[
        .g0 {
          fill: #000;
        }
      ]]>
    </style>
  </defs>
  <g transform="translate(0,150)">
		<path class="g0" d="M 60.197 418.646 H 27.571 c -6.978 0 -12.634 5.657 -12.634 12.634 s 5.656 12.634 12.634 12.634 h 32.627 c 6.978 0 12.634 -5.657 12.634 -12.634 C 72.831 424.304 67.174 418.646 60.197 418.646 Z" />
		<path class="g0" d="M 114.205 467.363 c -4.934 -4.932 -12.933 -4.934 -17.867 0 l -23.07 23.07 c -4.934 4.934 -4.935 12.933 0 17.868 c 2.467 2.466 5.7 3.701 8.933 3.701 c 3.233 0 6.467 -1.234 8.933 -3.701 l 23.07 -23.07 C 119.139 480.297 119.14 472.298 114.205 467.363 Z" />
		<path class="g0" d="M 484.431 424.963 H 262.965 l 226.699 -226.688 c 9.851 -9.852 9.852 -25.881 0.001 -35.733 L 334.522 7.388 c -9.853 -9.851 -25.882 -9.851 -35.735 0 l -247.99 247.99 c -14.318 14.318 -22.203 33.354 -22.203 53.602 c 0 20.247 7.885 39.284 22.203 53.602 l 74.701 74.699 c 8.351 8.351 19.455 12.951 31.266 12.951 H 484.43 c 6.978 0 12.634 -5.657 12.634 -12.634 C 497.065 430.621 491.409 424.963 484.431 424.963 Z M 156.765 424.963 c -5.062 0 -9.82 -1.972 -13.401 -5.551 l -74.699 -74.699 c -19.704 -19.704 -19.704 -51.765 0 -71.468 l 40.557 -40.557 l 133.335 133.336 c 2.467 2.466 5.7 3.7 8.933 3.7 s 6.467 -1.234 8.933 -3.7 c 4.934 -4.934 4.935 -12.933 0.001 -17.868 L 127.09 214.821 L 316.655 25.254 l 155.142 155.155 L 227.23 424.963 H 156.765 Z" />
	</g>
</svg>