<svg xmlns="http://www.w3.org/2000/svg" viewBox="0 0 50 50">
    <title>integral</title>
    <g id="b9d32c23-75b1-4ff9-b404-febfc3bf2b2e" data-name="rulers">
        <path d="M20.48,34.94a1.17,1.17,0,0,1,.34-.88,1.18,1.18,0,0,1,.86-.34,1.11,1.11,0,0,1,.84.35,1.13,1.13,0,0,1,.36.85,1.16,1.16,0,0,1-.28.77,1.14,1.14,0,0,1-.7.4l-.15,0s0,.09.11.18a.67.67,0,0,0,.19.15.62.62,0,0,0,.7.05,1.33,1.33,0,0,0,.6-.75,25.61,25.61,0,0,0,.8-5.23q.33-3.34.75-6.17c.4-2.7.78-4.84,1.12-6.43.47-2.21,1.31-3.45,2.53-3.7l.35,0a1.8,1.8,0,0,1,1.67,1.12,3.51,3.51,0,0,1,.33,1.45,1.18,1.18,0,0,1-.35.89,1.21,1.21,0,0,1-2.05-.86,1.19,1.19,0,0,1,.27-.78,1.21,1.21,0,0,1,.71-.4l.15-.05s0-.09-.12-.17a.4.4,0,0,0-.19-.15.6.6,0,0,0-.72,0c-.3.15-.54.59-.72,1.3a45.63,45.63,0,0,0-.63,4.63,120.75,120.75,0,0,1-1.82,12.37,7.18,7.18,0,0,1-1.3,3.23,2.47,2.47,0,0,1-1.58.75A1.8,1.8,0,0,1,21,36.77,3,3,0,0,1,20.48,34.94Z" style="fill:#333" />
    </g>
</svg>